<svg width="41" height="40" viewBox="0 0 41 40" fill="none" xmlns="http://www.w3.org/2000/svg">
<path d="M33.5455 9.82292H41V39.2917H9.31818V31.4333H11.1818V37.3271H39.1364V11.7875H33.5455V9.82292ZM0 29.4688V0H31.6818V29.4688H0ZM1.86364 19.581L5.00014 16.2746C5.1424 16.1248 5.33504 16.0404 5.5361 16.0397C5.73715 16.0389 5.93034 16.122 6.07359 16.2707C6.14146 16.3465 6.22296 16.4073 6.31334 16.4496C6.40372 16.4919 6.50118 16.5148 6.60004 16.517C6.6989 16.5192 6.79719 16.5006 6.88918 16.4624C6.98117 16.4241 7.06503 16.367 7.13586 16.2943L12.5851 10.5498C12.7193 10.4082 12.8989 10.3246 13.0886 10.3155C13.2783 10.3064 13.4643 10.3725 13.6101 10.5007L19.0743 15.3002C19.206 15.4162 19.371 15.4819 19.5425 15.4865C19.7141 15.4911 19.8821 15.4345 20.0192 15.3257L23.316 12.7187C23.4627 12.603 23.644 12.5468 23.8267 12.5606C24.0095 12.5743 24.1815 12.6569 24.3111 12.7934L29.8182 18.5987V1.96458H1.86364V19.581ZM29.8182 27.5042V21.3766L23.6682 14.8935L21.1374 16.8954C20.6649 17.27 20.0862 17.4653 19.4952 17.4496C18.9042 17.4339 18.3356 17.2082 17.8816 16.809L13.1908 12.6892L8.45345 17.6813C8.21424 17.935 7.92962 18.1361 7.61612 18.273C7.30261 18.41 6.96644 18.4799 6.62709 18.4789C6.31385 18.4786 6.00324 18.4187 5.71018 18.3021L1.86364 22.3589V27.5042H29.8182ZM19.5682 8.84063C19.9368 8.84063 20.2971 8.7254 20.6036 8.50953C20.91 8.29366 21.1489 7.98684 21.29 7.62786C21.431 7.26887 21.4679 6.87386 21.396 6.49277C21.3241 6.11168 21.1466 5.76162 20.886 5.48687C20.6253 5.21212 20.2933 5.02501 19.9318 4.94921C19.5702 4.8734 19.1955 4.91231 18.855 5.061C18.5145 5.2097 18.2234 5.4615 18.0186 5.78458C17.8138 6.10765 17.7045 6.48748 17.7045 6.87604C17.7045 7.39708 17.9009 7.89678 18.2504 8.26521C18.5999 8.63364 19.0739 8.84063 19.5682 8.84063Z" fill="#C39BF5"/>
</svg>
