<svg width="41" height="41" viewBox="0 0 41 41" fill="none" xmlns="http://www.w3.org/2000/svg">
<path d="M29.7583 13.8871H25.3468L29.0216 9.68658C29.4964 9.14432 29.7583 8.44798 29.7583 7.72717V7.60483C29.7583 5.96417 28.4231 4.62903 26.7824 4.62903C25.1418 4.62903 23.8066 5.96417 23.8066 7.60483V8.59677H25.1292V7.60483C25.1292 6.69292 25.8705 5.95161 26.7824 5.95161C27.6944 5.95161 28.4357 6.69292 28.4357 7.60483V7.72717C28.4357 8.12792 28.2902 8.51411 28.0263 8.81566L23.8066 13.6384V15.2097H29.7583V13.8871Z" fill="#C39BF5"/>
<path d="M35.0483 15.2097H36.3709V13.2258H37.6935V11.9032H36.3709V4.62903H34.6396L31.0806 11.7472V13.2258H35.0483V15.2097ZM32.4812 11.9032L35.0483 6.76896V11.9032H32.4812Z" fill="#C39BF5"/>
<path d="M32.671 20.9146C37.4264 19.879 41 15.6415 41 10.5806C41 4.74674 36.2533 0 30.4194 0C25.3585 0 21.121 3.57361 20.0854 8.32895C18.9182 8.07237 17.7272 7.93548 16.5323 7.93548C7.41637 7.93548 0 15.3519 0 24.4677C0 33.5836 7.41637 41 16.5323 41C25.6481 41 33.0645 33.5836 33.0645 24.4677C33.0645 23.2728 32.9276 22.0818 32.671 20.9146ZM30.4194 1.32258C35.5245 1.32258 39.6774 5.47548 39.6774 10.5806C39.6774 15.6858 35.5245 19.8387 30.4194 19.8387C25.3142 19.8387 21.1613 15.6858 21.1613 10.5806C21.1613 5.47548 25.3142 1.32258 30.4194 1.32258ZM29.071 23.8065H27.7742V25.129H29.0631C28.9076 28.0943 27.7246 30.785 25.8578 32.8582L24.9485 31.9489L24.0134 32.884L24.9227 33.7933C22.8496 35.6607 20.1588 36.8431 17.1935 36.9985V35.7097H15.871V36.9985C12.9057 36.8431 10.215 35.6601 8.14181 33.7933L9.05108 32.884L8.11602 31.9489L7.20674 32.8582C5.33926 30.785 4.15687 28.0943 4.00147 25.129H5.29032V23.8065H4.00147C4.15687 20.8412 5.33992 18.1504 7.20674 16.0773L8.11602 16.9866L9.05108 16.0515L8.14181 15.1422C10.215 13.2747 12.9057 12.0924 15.871 11.937V13.2258H17.1935V11.929C18.1445 11.9793 19.0862 12.1393 20.0073 12.4051C20.7718 16.7769 24.2224 20.2275 28.5949 20.9927C28.86 21.9138 29.0201 22.8555 29.071 23.8065ZM16.5323 39.6774C8.14511 39.6774 1.32258 32.8549 1.32258 24.4677C1.32258 16.0806 8.14511 9.25807 16.5323 9.25807C17.6604 9.25807 18.7853 9.39098 19.8863 9.63963C19.8585 9.95044 19.8387 10.2632 19.8387 10.5806C19.8387 10.7189 19.8539 10.8538 19.8592 10.9913C18.7681 10.7208 17.6531 10.5806 16.5323 10.5806C8.87518 10.5806 2.64516 16.8107 2.64516 24.4677C2.64516 32.1248 8.87518 38.3548 16.5323 38.3548C24.1893 38.3548 30.4194 32.1248 30.4194 24.4677C30.4194 23.3469 30.2792 22.2319 30.0087 21.1408C30.1462 21.1461 30.2811 21.1613 30.4194 21.1613C30.7368 21.1613 31.0496 21.1415 31.3604 21.1137C31.609 22.2147 31.7419 23.3396 31.7419 24.4677C31.7419 32.8549 24.9194 39.6774 16.5323 39.6774Z" fill="#C39BF5"/>
<path d="M18.5161 24.4677C18.5161 23.6067 17.9613 22.8793 17.1935 22.6055V14.5483H15.8709V22.6055C15.1032 22.8793 14.5483 23.6067 14.5483 24.4677C14.5483 25.5615 15.4384 26.4516 16.5322 26.4516C16.8377 26.4516 17.1234 26.3768 17.382 26.2525L22.0163 30.8868L22.9514 29.9518L18.317 25.3175C18.4414 25.0589 18.5161 24.7732 18.5161 24.4677ZM15.8709 24.4677C15.8709 24.1027 16.1672 23.8064 16.5322 23.8064C16.8972 23.8064 17.1935 24.1027 17.1935 24.4677C17.1935 24.8327 16.8972 25.129 16.5322 25.129C16.1672 25.129 15.8709 24.8327 15.8709 24.4677Z" fill="#C39BF5"/>
<path d="M36.3709 22.4839C35.2772 22.4839 34.3871 23.374 34.3871 24.4678C34.3871 25.295 34.8969 26.0046 35.6184 26.3015C35.2037 30.6555 33.3045 34.7535 30.2275 37.892L31.1719 38.8178C34.4777 35.4465 36.5111 31.039 36.9416 26.3577C37.7563 26.1111 38.3548 25.3625 38.3548 24.4678C38.3548 23.374 37.4647 22.4839 36.3709 22.4839ZM36.3709 25.129C36.0059 25.129 35.7096 24.8328 35.7096 24.4678C35.7096 24.1027 36.0059 23.8065 36.3709 23.8065C36.736 23.8065 37.0322 24.1027 37.0322 24.4678C37.0322 24.8328 36.736 25.129 36.3709 25.129Z" fill="#C39BF5"/>
<path d="M3.49342 10.4041C6.57371 7.54663 10.5368 5.78958 14.7016 5.39214C15.0019 6.10832 15.7088 6.61288 16.5321 6.61288C17.6259 6.61288 18.516 5.72279 18.516 4.62901C18.516 3.53524 17.6259 2.64514 16.5321 2.64514C15.638 2.64514 14.8888 3.24361 14.6421 4.05832C10.1645 4.47096 5.90382 6.36556 2.59473 9.43461L3.49342 10.4041ZM16.5321 3.96772C16.8971 3.96772 17.1934 4.26398 17.1934 4.62901C17.1934 4.99404 16.8971 5.2903 16.5321 5.2903C16.167 5.2903 15.8708 4.99404 15.8708 4.62901C15.8708 4.26398 16.167 3.96772 16.5321 3.96772Z" fill="#C39BF5"/>
</svg>
