<svg width="187" height="114" viewBox="0 0 187 114" fill="none" xmlns="http://www.w3.org/2000/svg">
<path d="M28.7197 73.8868L25.4175 66.1073L22.1162 73.8868H28.7197ZM29.8456 76.5135H21.0155L19.3388 80.4662H16.2627L23.992 62.9558H27.0188L34.6737 80.4662H31.5213L29.8456 76.5135Z" fill="#A08B63"/>
<path d="M46.3564 67.1829V69.1089L38.7517 78.1149L46.5816 78.139V80.4913L35.2002 80.4661V78.515L42.8049 69.509H35.4244V67.1577L46.3564 67.1829Z" fill="#A08B63"/>
<mask id="mask0_318_381" style="mask-type:luminance" maskUnits="userSpaceOnUse" x="0" y="0" width="187" height="114">
<path d="M0 -1.52588e-05H187V113.795H0V-1.52588e-05Z" fill="white"/>
</mask>
<g mask="url(#mask0_318_381)">
<path d="M56.7134 75.788V74.5617H53.1116C51.2358 74.5617 50.3603 75.0623 50.3603 76.3379C50.3603 77.5392 51.3354 78.3142 52.9367 78.3142C54.9874 78.3142 56.5637 77.2386 56.7134 75.788ZM56.7386 80.4655V78.84C55.7876 80.0161 54.2626 80.5911 52.3366 80.5911C49.4596 80.5911 47.6582 78.8148 47.6582 76.4636C47.6582 74.0369 49.4847 72.4858 52.6864 72.4607H56.7134V72.0616C56.7134 70.3849 55.6378 69.3846 53.5369 69.3846C52.2612 69.3846 50.9353 69.835 49.6094 70.7347L48.4342 68.7342C50.2849 67.6335 51.6359 67.0575 54.1621 67.0575C57.589 67.0575 59.5151 68.8086 59.5402 71.7359L59.5653 80.4655H56.7386Z" fill="#A08B63"/>
<path d="M72.5992 73.8618C72.5992 71.2854 70.9234 69.484 68.5209 69.484C66.1194 69.484 64.4446 71.3105 64.4195 73.8618C64.4446 76.388 66.0952 78.1894 68.5209 78.1894C70.9234 78.1894 72.5992 76.388 72.5992 73.8618ZM75.4762 61.9044V80.4653H72.5992V78.1894C71.6482 79.7405 70.0469 80.5909 67.9217 80.5909C64.0938 80.5909 61.5425 77.8144 61.5425 73.7613C61.5425 69.7594 64.1189 67.0332 67.8705 67.0332C70.0217 67.0332 71.6231 67.9078 72.5992 69.4589V61.9044H75.4762Z" fill="#A08B63"/>
<path d="M82.0812 80.466H79.2293V67.1576H82.0812V80.466ZM82.3315 63.3558C82.3315 64.3309 81.6057 65.0566 80.6548 65.0566C79.7048 65.0566 78.98 64.3309 78.98 63.3558C78.98 62.3546 79.7048 61.6288 80.6548 61.6288C81.6057 61.6288 82.3315 62.3546 82.3315 63.3558Z" fill="#A08B63"/>
<path fill-rule="evenodd" clip-rule="evenodd" d="M46.4766 34.9413L52.5466 41.3727L53.83 43.1615L55.1192 44.9523L53.5381 43.4234L51.96 41.8985L46.4766 34.9413Z" fill="#A08B63"/>
<path fill-rule="evenodd" clip-rule="evenodd" d="M49.2119 33.1047L53.5105 40.8514L54.3126 42.9002L55.1196 44.9519L53.9637 43.0761L52.806 41.1984L49.2119 33.1047Z" fill="#A08B63"/>
<path fill-rule="evenodd" clip-rule="evenodd" d="M52.3418 32.0727L54.5848 40.609L54.8535 42.7785L55.1193 44.952L54.4621 42.851L53.8059 40.7501L52.3418 32.0727Z" fill="#A08B63"/>
<path fill-rule="evenodd" clip-rule="evenodd" d="M55.661 31.9136L55.6987 40.6615L55.4087 42.804L55.1198 44.9524L55.0106 42.7741L54.9023 40.591L55.661 31.9136Z" fill="#A08B63"/>
<path fill-rule="evenodd" clip-rule="evenodd" d="M58.9466 32.6484L56.7674 41.0097L55.9469 42.9802L55.1196 44.9517L55.5661 42.844L56.0107 40.7333L58.9466 32.6484Z" fill="#A08B63"/>
<path fill-rule="evenodd" clip-rule="evenodd" d="M61.9768 34.2235L57.7294 41.6233L56.4257 43.2884L55.1201 44.9526L56.0875 43.0584L57.0587 41.1623L61.9768 34.2235Z" fill="#A08B63"/>
<path fill-rule="evenodd" clip-rule="evenodd" d="M64.5329 36.5235L58.5074 42.4688L56.8162 43.7106L55.1201 44.9525L56.5456 43.3975L57.9691 41.8455L64.5329 36.5235Z" fill="#A08B63"/>
<path fill-rule="evenodd" clip-rule="evenodd" d="M66.4522 39.4061L59.0621 43.4815L57.0877 44.2169L55.1201 44.9524L56.9089 43.8487L58.6958 42.7432L66.4522 39.4061Z" fill="#A08B63"/>
<path fill-rule="evenodd" clip-rule="evenodd" d="M67.5926 42.6616L59.3453 44.5944L57.2346 44.7761L55.1201 44.952L57.1447 44.3693L59.1703 43.7933L67.5926 42.6616Z" fill="#A08B63"/>
<path fill-rule="evenodd" clip-rule="evenodd" d="M67.8869 46.0738L59.339 45.7298L57.2293 45.3442L55.1206 44.9518L57.2467 44.9305L59.3728 44.916L67.8869 46.0738Z" fill="#A08B63"/>
<path fill-rule="evenodd" clip-rule="evenodd" d="M67.3128 49.4119L59.0432 46.8151L57.0843 45.8874L55.1196 44.9519L57.2022 45.4979L59.2848 46.0497L67.3128 49.4119Z" fill="#A08B63"/>
<path fill-rule="evenodd" clip-rule="evenodd" d="M65.9062 52.4414L58.4852 47.7756L56.8036 46.3656L55.1201 44.9517L57.0143 46.0293L58.9075 47.1029L65.9062 52.4414Z" fill="#A08B63"/>
<path fill-rule="evenodd" clip-rule="evenodd" d="M63.7622 54.9622L57.6941 48.5394L56.4079 46.7477L55.1196 44.9521L56.7007 46.4858L58.2817 48.0146L63.7622 54.9622Z" fill="#A08B63"/>
<path fill-rule="evenodd" clip-rule="evenodd" d="M61.0331 56.8048L56.7258 49.0552L55.9227 47.0064L55.1196 44.9518L56.2803 46.8334L57.4351 48.715L61.0331 56.8048Z" fill="#A08B63"/>
<path fill-rule="evenodd" clip-rule="evenodd" d="M57.9 57.8401L55.6531 49.3009L55.3825 47.1275L55.1206 44.9521L55.7787 47.0559L56.4301 49.1569L57.9 57.8401Z" fill="#A08B63"/>
<path fill-rule="evenodd" clip-rule="evenodd" d="M54.5738 57.9925L54.5371 49.2446L54.827 47.0972L55.1199 44.9518L55.2281 47.1349L55.3344 49.3151L54.5738 57.9925Z" fill="#A08B63"/>
<path fill-rule="evenodd" clip-rule="evenodd" d="M51.2891 57.2582L53.4683 48.8969L54.2927 46.9225L55.1199 44.952L54.6744 47.0684L54.2279 49.1771L51.2891 57.2582Z" fill="#A08B63"/>
<path fill-rule="evenodd" clip-rule="evenodd" d="M48.2646 55.6893L52.5072 48.2837L53.8167 46.6176L55.1203 44.9525L54.1481 46.8486L53.1798 48.7475L48.2646 55.6893Z" fill="#A08B63"/>
<path fill-rule="evenodd" clip-rule="evenodd" d="M45.7056 53.3799L51.7263 47.4346L53.4223 46.1928L55.1203 44.9519L53.6929 46.5068L52.2646 48.0579L45.7056 53.3799Z" fill="#A08B63"/>
<path fill-rule="evenodd" clip-rule="evenodd" d="M43.79 50.5066L51.1773 46.4274L53.1487 45.69L55.1202 44.9517L53.3324 46.0582L51.5406 47.1638L43.79 50.5066Z" fill="#A08B63"/>
<path fill-rule="evenodd" clip-rule="evenodd" d="M42.6431 47.2445L50.8933 45.3146L53.0068 45.1358L55.1194 44.9522L53.0938 45.534L51.0653 46.1138L42.6431 47.2445Z" fill="#A08B63"/>
<path fill-rule="evenodd" clip-rule="evenodd" d="M42.3486 43.8324L50.8975 44.1764L53.01 44.5659L55.1197 44.9525L52.9898 44.9689L50.8637 44.9902L42.3486 43.8324Z" fill="#A08B63"/>
<path fill-rule="evenodd" clip-rule="evenodd" d="M42.9277 40.5004L51.1915 43.0904L53.1572 44.0201L55.1199 44.9517L53.0335 44.4076L50.9538 43.8597L42.9277 40.5004Z" fill="#A08B63"/>
<path fill-rule="evenodd" clip-rule="evenodd" d="M44.3379 37.4686L51.756 42.1373L53.4405 43.5454L55.1201 44.9525L53.2211 43.8778L51.3289 42.8041L44.3379 37.4686Z" fill="#A08B63"/>
<path fill-rule="evenodd" clip-rule="evenodd" d="M50.6417 32.5738C50.9577 32.4212 51.3462 32.5613 51.5057 32.8889C51.669 33.2136 51.5482 33.606 51.2322 33.7587C50.921 33.9114 50.5335 33.7712 50.3769 33.4465C50.2078 33.116 50.3286 32.7236 50.6417 32.5738Z" fill="#A08B63"/>
<path fill-rule="evenodd" clip-rule="evenodd" d="M53.879 31.9438C54.2231 31.8849 54.5613 32.1159 54.6415 32.4754C54.714 32.83 54.5004 33.1692 54.1554 33.234C53.8133 33.3016 53.4703 33.0591 53.3958 32.7063C53.3176 32.3497 53.535 32.0144 53.879 31.9438Z" fill="#A08B63"/>
<path fill-rule="evenodd" clip-rule="evenodd" d="M57.1989 32.2048C57.5478 32.2318 57.8242 32.5527 57.8068 32.9093C57.7942 33.2717 57.4937 33.5413 57.139 33.5065C56.7901 33.4795 56.5128 33.1586 56.5311 32.803C56.5466 32.4435 56.8462 32.1739 57.1989 32.2048Z" fill="#A08B63"/>
<path fill-rule="evenodd" clip-rule="evenodd" d="M60.3751 33.3321C60.7114 33.45 60.9008 33.8308 60.7945 34.171C60.6844 34.5063 60.3277 34.6851 59.9905 34.5614C59.6571 34.4396 59.4696 34.0627 59.5701 33.7225C59.6841 33.3843 60.0407 33.2113 60.3751 33.3321Z" fill="#A08B63"/>
<path fill-rule="evenodd" clip-rule="evenodd" d="M63.1961 35.2531C63.4918 35.459 63.5788 35.8629 63.3875 36.1596C63.2009 36.4573 62.8076 36.5317 62.509 36.3229C62.2075 36.1161 62.1234 35.7093 62.3089 35.4116C62.5013 35.1149 62.8946 35.0463 63.1961 35.2531Z" fill="#A08B63"/>
<path fill-rule="evenodd" clip-rule="evenodd" d="M65.4632 37.8291C65.7067 38.1113 65.6835 38.5162 65.4226 38.751C65.1636 38.983 64.7645 38.954 64.5219 38.6728C64.2841 38.3973 64.3006 37.9847 64.5605 37.7527C64.8224 37.5189 65.2254 37.5546 65.4632 37.8291Z" fill="#A08B63"/>
<path fill-rule="evenodd" clip-rule="evenodd" d="M67.0297 40.8972C67.1921 41.2278 67.0742 41.6162 66.7553 41.766C66.4421 41.9226 66.0575 41.7796 65.8913 41.451C65.7338 41.1263 65.8546 40.7407 66.1648 40.5822C66.4847 40.4324 66.8635 40.5687 67.0297 40.8972Z" fill="#A08B63"/>
<path fill-rule="evenodd" clip-rule="evenodd" d="M67.7787 44.2424C67.857 44.5923 67.6396 44.9334 67.2984 45.0011C66.9505 45.0629 66.6113 44.8233 66.535 44.4705C66.4547 44.112 66.677 43.7766 67.022 43.7119C67.3603 43.6471 67.7004 43.88 67.7787 44.2424Z" fill="#A08B63"/>
<path fill-rule="evenodd" clip-rule="evenodd" d="M67.6684 47.631C67.6558 47.9934 67.3611 48.2572 67.0045 48.2263C66.6517 48.1944 66.3782 47.8784 66.3937 47.5189C66.4111 47.1565 66.7058 46.8926 67.0586 46.9236C67.4104 46.9545 67.6838 47.2705 67.6684 47.631Z" fill="#A08B63"/>
<path fill-rule="evenodd" clip-rule="evenodd" d="M66.7065 50.8407C66.5992 51.1799 66.2416 51.3587 65.9044 51.2282C65.5681 51.1103 65.3815 50.7334 65.4888 50.3942C65.5922 50.0569 65.9498 49.8839 66.2861 50.0028C66.6214 50.1236 66.8128 50.5005 66.7065 50.8407Z" fill="#A08B63"/>
<path fill-rule="evenodd" clip-rule="evenodd" d="M64.9495 53.6498C64.7601 53.9436 64.3638 54.0151 64.071 53.8112C63.7705 53.6053 63.6825 53.1956 63.8748 52.8989C64.0575 52.5993 64.4547 52.5268 64.7533 52.7365C65.0539 52.9433 65.1389 53.3502 64.9495 53.6498Z" fill="#A08B63"/>
<path fill-rule="evenodd" clip-rule="evenodd" d="M62.5253 55.8657C62.2692 56.0938 61.8595 56.058 61.6227 55.7836C61.3821 55.5053 61.4024 55.0897 61.6575 54.8607C61.9194 54.6268 62.3243 54.6616 62.564 54.9399C62.8017 55.2153 62.7872 55.6318 62.5253 55.8657Z" fill="#A08B63"/>
<path fill-rule="evenodd" clip-rule="evenodd" d="M59.5943 57.3329C59.2841 57.4865 58.8965 57.3454 58.7332 57.0207C58.567 56.6921 58.6907 56.2988 59.0038 56.148C59.314 55.9953 59.7025 56.1345 59.8649 56.466C60.0282 56.7907 59.9074 57.1831 59.5943 57.3329Z" fill="#A08B63"/>
<path fill-rule="evenodd" clip-rule="evenodd" d="M56.3593 57.96C56.0153 58.0237 55.6722 57.7879 55.5988 57.4323C55.5214 57.0757 55.736 56.7374 56.0829 56.6756C56.4241 56.6079 56.7681 56.8447 56.8396 57.2004C56.9198 57.5589 56.7053 57.8991 56.3593 57.96Z" fill="#A08B63"/>
<path fill-rule="evenodd" clip-rule="evenodd" d="M53.0397 57.6985C52.6909 57.6715 52.4164 57.3545 52.4328 56.995C52.4444 56.6374 52.745 56.3688 53.0977 56.3997C53.4495 56.4306 53.723 56.7476 53.7046 57.1032C53.6921 57.4666 53.3925 57.7353 53.0397 57.6985Z" fill="#A08B63"/>
<path fill-rule="evenodd" clip-rule="evenodd" d="M54.0281 43.6879C54.6843 43.1013 55.7049 43.1902 56.3079 43.888C56.9129 44.5886 56.8674 45.6285 56.2103 46.2161C55.5551 46.8027 54.5355 46.7167 53.9305 46.016C53.3285 45.3183 53.3729 44.2745 54.0281 43.6879Z" fill="#A08B63"/>
<path fill-rule="evenodd" clip-rule="evenodd" d="M64.8608 36.2295C60.8724 31.61 54.6497 30.2445 49.5664 32.4257V33.5496C54.3453 31.267 60.3399 32.4634 64.1447 36.8712C68.7216 42.1719 68.3901 50.0916 63.4083 54.5526C59.5339 58.021 53.9935 58.368 49.5664 55.8698V56.9928C54.267 59.4213 60.0104 58.9449 64.0654 55.3151C69.4483 50.4956 69.802 41.9535 64.8608 36.2295Z" fill="#A08B63"/>
<path d="M99.2558 86.4723L94.6528 80.2882L92.2706 82.9091V86.4723H89.9087V72.4613H92.2706V79.7074L98.9552 72.4613H101.738L96.314 78.4462L102.098 86.4723H99.2558Z" fill="#A08B63"/>
<path d="M110.002 82.7299V81.7489H107.121C105.619 81.7489 104.918 82.149 104.918 83.1696C104.918 84.1311 105.699 84.7506 106.981 84.7506C108.621 84.7506 109.882 83.8905 110.002 82.7299ZM110.023 86.4728V85.171C109.261 86.1123 108.041 86.5733 106.499 86.5733C104.198 86.5733 102.756 85.1517 102.756 83.2701C102.756 81.3286 104.218 80.0877 106.78 80.0674H110.002V79.7475C110.002 78.4061 109.141 77.606 107.461 77.606C106.439 77.606 105.379 77.9655 104.318 78.6864L103.378 77.0851C104.858 76.2047 105.939 75.7437 107.96 75.7437C110.703 75.7437 112.244 77.145 112.264 79.4876L112.284 86.4728H110.023Z" fill="#A08B63"/>
<path d="M72.0169 90.093L77.7951 101.725L83.5491 90.093H87.0262V107.603H84.299L84.2748 94.5211L78.746 105.777H76.82L71.2921 94.5211V107.603H68.5146V90.093H72.0169Z" fill="#A08B63"/>
<path d="M98.8096 102.925V101.699H95.2069C93.3311 101.699 92.4555 102.2 92.4555 103.475C92.4555 104.676 93.4316 105.451 95.032 105.451C97.0836 105.451 98.6598 104.376 98.8096 102.925ZM98.8348 107.603V105.977C97.8838 107.153 96.3579 107.728 94.4318 107.728C91.5558 107.728 89.7544 105.952 89.7544 103.601C89.7544 101.174 91.5809 99.6231 94.7826 99.5979H98.8096V99.1988C98.8096 97.5221 97.734 96.5219 95.6321 96.5219C94.3574 96.5219 93.0315 96.9712 91.7056 97.8719L90.5304 95.8705C92.3811 94.7707 93.7321 94.1948 96.2583 94.1948C99.6852 94.1948 101.611 95.9459 101.636 98.8731L101.662 107.603H98.8348Z" fill="#A08B63"/>
<path d="M117.772 99.3235V107.603H114.895V100.124C114.895 98.1223 113.695 96.8969 111.693 96.8969C109.317 96.922 107.892 98.6982 107.892 101.05V107.603H105.015V89.0419H107.892V96.8969C108.842 95.0211 110.543 94.1948 112.819 94.1948C115.921 94.1948 117.772 96.146 117.772 99.3235Z" fill="#A08B63"/>
<path d="M122.627 100.974C122.627 103.551 124.302 105.303 126.704 105.303C129.08 105.303 130.756 103.551 130.756 100.974C130.756 98.4228 129.08 96.6465 126.704 96.6465C124.302 96.6465 122.627 98.4228 122.627 100.974ZM133.633 100.925C133.633 104.952 130.806 107.703 126.704 107.703C122.576 107.703 119.75 104.952 119.75 100.925C119.75 96.922 122.576 94.1948 126.704 94.1948C130.806 94.1948 133.633 96.922 133.633 100.925Z" fill="#A08B63"/>
<path d="M143.54 106.752C142.49 107.378 141.389 107.728 140.263 107.728C138.261 107.728 136.535 106.577 136.535 103.851V96.9471H134.66V94.7949H136.535V91.1438H139.387V94.7949H143.315V96.9471H139.387V103.326C139.387 104.702 139.913 105.127 140.813 105.127C141.414 105.127 142.039 104.927 142.814 104.551L143.54 106.752Z" fill="#A08B63"/>
<path d="M149.319 96.4714C148.193 96.4714 147.368 96.8464 147.368 97.7973C147.368 100.249 154.447 98.9232 154.422 103.75C154.422 106.478 151.996 107.704 149.319 107.704C147.368 107.704 145.292 107.053 143.965 105.852L144.992 103.801C146.142 104.827 147.993 105.451 149.444 105.451C150.669 105.451 151.62 105.027 151.62 104.026C151.62 101.3 144.616 102.825 144.642 98.0215C144.642 95.3214 146.992 94.1704 149.544 94.1704C151.22 94.1704 152.996 94.67 154.197 95.5214L153.146 97.6466C151.971 96.9218 150.494 96.4714 149.319 96.4714Z" fill="#A08B63"/>
<path d="M164.654 102.925V101.699H161.051C159.175 101.699 158.3 102.2 158.3 103.475C158.3 104.676 159.276 105.451 160.876 105.451C162.928 105.451 164.504 104.376 164.654 102.925ZM164.679 107.603V105.977C163.728 107.153 162.202 107.728 160.276 107.728C157.4 107.728 155.599 105.952 155.599 103.601C155.599 101.174 157.425 99.6231 160.627 99.5979H164.654V99.1988C164.654 97.5221 163.578 96.5219 161.476 96.5219C160.202 96.5219 158.876 96.9712 157.55 97.8719L156.375 95.8705C158.225 94.7707 159.576 94.1948 162.103 94.1948C165.529 94.1948 167.455 95.9459 167.481 98.8731L167.506 107.603H164.679Z" fill="#A08B63"/>
<path d="M171.234 94.2952L174.936 104.777L178.588 94.2952H181.465L176.362 107.604H173.385L168.232 94.2952H171.234Z" fill="#A08B63"/>
<path d="M18.4021 95.2601L15.7599 89.0354L13.1178 95.2601H18.4021ZM19.3028 97.362H12.2374L10.896 100.524H8.43457L14.6186 86.5131H17.0414L23.1655 100.524H20.6442L19.3028 97.362Z" fill="#A08B63"/>
<path d="M42.1788 93.8992V100.524H39.8768V94.54C39.8768 92.9183 38.9162 91.9374 37.3544 91.9374C35.5337 91.9983 34.433 93.3986 34.433 95.2599V100.524H32.131V94.54C32.131 92.9183 31.1897 91.9374 29.629 91.9374C27.787 91.9983 26.6669 93.3986 26.6669 95.2599V100.524H24.3843V89.8761H26.6669V91.9374C27.4072 90.4366 28.7689 89.7959 30.5297 89.7959C32.4306 89.7959 33.7314 90.7371 34.232 92.3578C34.9123 90.5767 36.3339 89.7959 38.2754 89.7959C40.7175 89.7959 42.1788 91.3576 42.1788 93.8992Z" fill="#A08B63"/>
<path d="M50.7438 89.7963V91.9977C48.6022 91.8779 47.2405 93.1381 47.0608 94.9598V100.524H44.7588V89.8765H47.0608V91.9977C47.7817 90.5568 49.0622 89.7963 50.7438 89.7963Z" fill="#A08B63"/>
<path d="M54.4251 100.525H52.1434V89.876H54.4251V100.525ZM54.6252 86.8347C54.6252 87.6146 54.0453 88.1954 53.2847 88.1954C52.5242 88.1954 51.9443 87.6146 51.9443 86.8347C51.9443 86.0326 52.5242 85.4527 53.2847 85.4527C54.0453 85.4527 54.6252 86.0326 54.6252 86.8347Z" fill="#A08B63"/>
<path d="M63.3521 99.844C62.5113 100.345 61.6309 100.625 60.7302 100.625C59.1289 100.625 57.7479 99.7039 57.7479 97.5217V91.9977H56.2461V90.2765H57.7479V87.3541H60.0296V90.2765H63.1714V91.9977H60.0296V97.1023C60.0296 98.2021 60.45 98.5422 61.1699 98.5422C61.6502 98.5422 62.1508 98.3828 62.7713 98.0822L63.3521 99.844Z" fill="#A08B63"/>
<path fill-rule="evenodd" clip-rule="evenodd" d="M148.231 28.8832C147.486 28.5208 146.927 28.8059 146.418 29.0359C141.575 31.2152 136.728 31.1263 131.662 29.6564C127.604 28.4793 123.462 27.4472 119.215 27.0867C111.611 26.4431 104.811 29.0746 98.2212 32.4058C95.3423 33.8602 92.5146 35.42 89.3457 36.1323C86.5306 36.7653 85.4975 35.6945 86.0223 32.8677C86.4649 30.4836 85.9295 29.5249 83.6352 28.7257C83.0177 28.5102 82.3663 28.3546 81.7179 28.2754C73.5575 27.2809 65.5818 28.4397 57.6901 30.387L57.0513 30.6827C57.0513 30.6827 65.9645 30.098 69.8475 37.9317C74.7481 37.1953 79.671 37.3954 84.6036 38.0815C86.6118 38.3608 87.4081 39.4268 86.663 41.4726C86.3673 42.2883 86.2097 43.1783 86.1421 44.0462C85.9362 46.7028 87.1201 47.7156 89.7217 47.1252C90.5721 46.9328 91.4341 46.6835 92.214 46.3037C95.7646 44.5758 99.3365 42.8933 102.622 40.6599C106.113 38.2854 109.897 36.7266 114.186 36.2734C119.888 35.6703 125.592 36.1216 131.287 35.8723C136.215 35.6568 141.099 35.1243 145.279 32.1178C146.463 31.2654 147.799 30.4739 148.231 28.8832Z" fill="#F7941D"/>
<path fill-rule="evenodd" clip-rule="evenodd" d="M148.231 46.9128C147.486 46.5504 146.927 46.8355 146.418 47.0655C141.575 49.2448 136.728 49.1559 131.662 47.686C127.604 46.5098 123.462 45.4768 119.215 45.1173C111.611 44.4727 104.811 47.1042 98.2213 50.4354C95.3424 51.8898 92.5147 53.4496 89.3458 54.1619C86.5307 54.7949 85.4976 53.7251 86.0223 50.8973C86.465 48.5132 85.9296 47.5545 83.6353 46.7553C83.0178 46.5398 82.3664 46.3842 81.718 46.305C78.3143 45.8904 74.9444 45.8546 71.5977 46.0895C71.4769 47.3516 70.5646 53.8652 64.542 57.1181C65.2774 56.921 66.0129 56.7286 66.7522 56.5537C72.6743 55.1582 78.6322 55.28 84.6037 56.1111C86.6119 56.3914 87.4082 57.4564 86.6631 59.5032C86.3674 60.3179 86.2098 61.208 86.1422 62.0758C85.9363 64.7324 87.1202 65.7452 89.7218 65.1548C90.5722 64.9624 91.4342 64.7131 92.2141 64.3333C95.7647 62.6054 99.3366 60.9238 102.622 58.6895C106.113 56.316 109.897 54.7562 114.186 54.303C119.888 53.6999 125.592 54.1512 131.287 53.9019C136.215 53.6864 141.099 53.1549 145.279 50.1474C146.463 49.295 147.799 48.5035 148.231 46.9128Z" fill="#00A24E"/>
<path fill-rule="evenodd" clip-rule="evenodd" d="M17.4663 14.0393V17.9011H40.3953L21.0662 53.3566L24.2244 55.6383L47.3051 14.0393H17.4663Z" fill="#A08B63"/>
<path fill-rule="evenodd" clip-rule="evenodd" d="M69.1496 14.0393H51.2111L38.1685 37.5597L41.1856 39.0509L53.1661 17.9011H69.1496V14.0393Z" fill="#A08B63"/>
</g>
</svg>
