<svg width="41" height="41" viewBox="0 0 41 41" fill="none" xmlns="http://www.w3.org/2000/svg">
<path fill-rule="evenodd" clip-rule="evenodd" d="M40.9487 20.9356L38.4631 36.1825C38.0275 39.7188 33.6456 41 30.75 41H14.5806C14.0681 41 13.6069 40.8719 13.2225 40.6413L9.5325 38.4375H5.125C2.40875 38.4375 0 36.0288 0 33.3125V23.0625C0 20.3463 2.40875 17.8862 5.125 17.9375H10.25C12.5819 17.9375 13.8119 16.7844 16.3744 13.9656C18.7062 11.4031 18.6294 9.35313 17.9888 5.58625C17.7838 4.305 18.1425 3.02375 19.065 1.9475C20.0644 0.743125 21.5763 0 23.0625 0C27.7519 0 30.75 9.50688 30.75 12.8381L30.6987 15.3494H35.9263C38.8988 15.3494 40.9231 17.3994 41 20.3975C41 20.6794 40.9487 20.9356 40.9487 20.9356ZM35.9006 17.8862H30.8013C29.0075 17.8862 28.1619 17.1688 28.1619 15.4006L28.2388 12.7613C28.2388 9.50688 25.2406 2.51125 23.1138 2.51125C21.8325 2.51125 20.3463 3.7925 20.5513 5.07375C21.1919 9.1225 21.4225 12.1975 18.2706 15.6825C15.6569 18.5781 13.735 20.5 10.25 20.5V35.875L14.5294 38.4375H30.75C32.6206 38.4375 35.7469 37.6431 35.875 35.875L35.9263 35.8237L38.4888 20.4487C38.4119 18.8088 37.515 17.8862 35.9263 17.8862H35.9006Z" fill="#969696"/>
</svg>
