<svg width="51" height="41" viewBox="0 0 51 41" fill="none" xmlns="http://www.w3.org/2000/svg">
<path d="M48.812 11.6167L49.7021 9.45504C49.7857 9.12038 49.7857 8.78562 49.7021 8.5346C49.5347 8.28358 49.2837 8.03256 49.0327 7.94892L40.3306 4.35099C39.7449 4.18361 39.0755 4.43463 38.8245 5.02041L38.7097 5.30732C38.5641 4.71791 38.4898 4.09281 38.4898 3.43065C38.4898 1.50612 36.9837 0 35.0591 0H24.9347C23.1775 0 21.7551 1.42248 21.8388 3.17963V3.51429C21.8388 4.51837 21.5878 5.43881 21.1694 6.19187C20.751 6.77756 20.4163 7.11232 19.8306 7.19596L8.67413 9.20402H8.61834L7.2796 9.45504C3.01225 10.3755 0 14.2244 0 18.4918V36.4816C0 38.0714 1.2551 39.3265 2.84487 39.3265H13.3877H23.0102C23.0243 39.3333 23.0385 39.3395 23.0526 39.3463C24.7826 40.2059 26.6915 40.7595 28.7094 40.9369C28.7213 40.9379 28.7331 40.939 28.745 40.94C28.871 40.9508 28.9975 40.9601 29.1244 40.9679C29.1573 40.97 29.1901 40.9723 29.2231 40.9742C29.3357 40.9805 29.4487 40.9852 29.562 40.9891C29.6005 40.9905 29.6389 40.9925 29.6775 40.9935C29.8254 40.9976 29.9736 41 30.1225 41C30.2716 41 30.4203 40.9975 30.5684 40.9934C30.6039 40.9925 30.6392 40.9906 30.6747 40.9894C30.7935 40.9854 30.912 40.9803 31.0301 40.9736C31.0536 40.9723 31.0771 40.9706 31.1006 40.9691C33.3601 40.8321 35.4917 40.225 37.3983 39.2428H47.6939C48.3633 39.2428 50.2041 39.2428 50.2041 25.0182C50.2041 16.2968 49.5034 12.9238 48.812 11.6167ZM40.3307 6.10814L48.0287 9.28776L47.4741 10.6346L40.3307 7.6979C40.1145 7.60524 39.9212 7.50091 39.7464 7.3602L40.3307 6.10814ZM2.84487 37.653C2.17545 37.653 1.67341 37.151 1.67341 36.4815V18.4918C1.67341 14.9775 4.18361 11.8816 7.61426 11.1285L9.0088 10.8775H10.7938L12.2999 13.9734C12.8856 15.1449 12.8856 16.5673 12.2999 17.7387C11.9653 18.5754 11.7142 19.4959 11.7142 20.4163V37.6531L2.84487 37.653ZM29.7417 39.3214C27.7452 39.2691 25.8525 38.8062 24.1438 38.0151C23.9599 37.9265 23.777 37.8348 23.5959 37.7367L23.4286 37.6531H23.4167C18.9394 35.2594 15.8979 30.5412 15.8979 25.1021C15.8979 17.2368 22.2571 10.8775 30.1225 10.8775C34.4899 10.8775 38.3922 12.839 41 15.9296V15.9816L41.1674 16.149C41.248 16.2396 41.3258 16.3329 41.4018 16.4281C41.4256 16.459 41.4494 16.4898 41.4729 16.5209C41.4958 16.5504 41.5181 16.5804 41.5406 16.6103C41.5971 16.6862 41.6528 16.7627 41.7078 16.8397C42.1252 17.4343 42.4836 18.0879 42.8408 18.7428L43.0918 19.2448H43.0921C43.8983 21.0304 44.3469 23.0131 44.3469 25.102C44.3469 30.5411 41.3053 35.2593 36.8282 37.653H36.8163L36.6489 37.7366C36.1647 37.9884 35.6804 38.2074 35.1932 38.3974C33.7308 38.9544 32.1527 39.2781 30.5036 39.3213C30.3772 39.3243 30.2503 39.3265 30.1225 39.3265C29.995 39.3265 29.8682 39.3243 29.7417 39.3214ZM42.6735 15.3122C42.6735 15.1448 42.8409 14.9775 43.0919 14.9775H44.6817C44.9327 14.9775 45.1837 15.2285 45.1837 15.4795V17.0693C45.1837 17.3203 44.9327 17.5713 44.6817 17.5713H44.129C43.7421 16.8526 43.3013 16.1673 42.8122 15.5204C42.766 15.451 42.7198 15.3816 42.6735 15.3122ZM47.4429 37.653H39.885C43.6195 34.745 46.0205 30.2061 46.0205 25.102C46.0205 23.0285 45.624 21.0484 44.9032 19.2328C45.9773 19.1166 46.8626 18.1715 46.941 17.153V15.5633C46.941 14.3918 45.9369 13.3877 44.7654 13.3877H43.1755C42.5628 13.3877 41.9961 13.6628 41.5947 14.0926C38.7023 11.0791 34.6331 9.20402 30.1225 9.20402C21.3368 9.20402 14.2245 16.3162 14.2245 25.102C14.2245 30.2061 16.6255 34.745 20.36 37.653H13.3878V20.4163C13.3878 19.7469 13.4715 19.0776 13.8062 18.4918C14.6429 16.8183 14.6429 14.8939 13.8062 13.2204L12.3354 10.2787L20.1654 8.86926C21.2531 8.61824 22.0062 8.03256 22.592 7.02848C23.094 6.0244 23.4287 4.85293 23.4287 3.51419V3.17953C23.4287 2.34283 24.0981 1.67341 24.9348 1.67341H35.0592C36.0633 1.67341 36.8164 2.42647 36.8164 3.43055C36.8164 4.68565 37.0674 5.77338 37.4858 6.8612C37.5858 7.08113 37.6958 7.30588 37.8217 7.52738L37.8205 7.53062L38.0715 7.94902C38.1026 7.9853 38.1338 8.02129 38.1648 8.05688C38.4639 8.45841 38.8435 8.82406 39.349 9.10018C39.4749 9.17235 39.6061 9.2357 39.7449 9.28776L47.4904 12.5491C48.9488 15.242 48.9329 35.1696 47.4429 37.653Z" fill="#969696"/>
</svg>
