<svg width="229" height="55" viewBox="0 0 229 55" fill="none" xmlns="http://www.w3.org/2000/svg">
<path fill-rule="evenodd" clip-rule="evenodd" d="M0 31.2396V31.2571H7.51372C7.51372 44.3698 18.1438 54.9999 31.2568 54.9999C37.7148 54.9999 43.5692 52.4203 47.8497 48.2371L42.898 43.2854C39.8854 46.2016 35.781 47.9969 31.2568 47.9969C22.0112 47.9969 14.5171 40.5024 14.5171 31.2571H21.7538C21.7538 26.0088 26.0085 21.7539 31.2568 21.7539C36.5051 21.7539 40.7601 26.0088 40.7601 31.2571H47.9967L47.9954 31.1494C47.9373 21.954 40.4659 14.5171 31.2568 14.5171C22.0658 14.5171 14.6055 21.9251 14.5188 31.0956L14.5171 31.2571H7.58293L7.58515 31.0844C7.67822 18.0893 18.2398 7.58309 31.2568 7.58309C44.2993 7.58309 54.8772 18.1303 54.9293 31.1603L54.9307 31.2571H62.5137L62.5127 31.1725C62.4671 13.9487 48.4912 0 31.2568 0C14.0557 0 0.102112 13.8949 0.00237351 31.0723C0.00207711 31.1282 0.000444599 31.1839 0 31.2396Z" fill="url(#paint0_linear_196_744)"/>
<path fill-rule="evenodd" clip-rule="evenodd" d="M59.4475 1.62799L60.625 5.46057L64.4579 6.63802L60.625 7.81547L59.4475 11.6484L58.2702 7.81547L54.4375 6.63802L58.2702 5.46057L59.4475 1.62799Z" fill="#964693"/>
<path d="M67.7999 51.6317C65.5544 49.4506 64.4316 46.6839 64.4316 43.3316C64.4316 39.9793 65.5544 37.2127 67.7999 35.0315C70.0456 32.8505 72.7907 31.7599 76.0355 31.7599C78.5497 31.7599 80.7846 32.426 82.7401 33.7584C84.6956 35.0907 86.06 36.9387 86.8336 39.3025H80.258C79.3986 37.6479 78.0233 36.8206 76.1323 36.8206C74.2413 36.8206 72.7532 37.4115 71.6679 38.5934C70.5828 39.7753 70.0402 41.3546 70.0402 43.3316C70.0402 45.3086 70.5828 46.888 71.6679 48.0699C72.7532 49.2518 74.2413 49.8428 76.1323 49.8428C78.0233 49.8428 79.3986 49.0154 80.258 47.3607H86.8336C86.06 49.7245 84.6956 51.5726 82.7401 52.9049C80.7846 54.2372 78.5497 54.9034 76.0355 54.9034C72.7907 54.9034 70.0456 53.8128 67.7999 51.6317ZM101.339 49.0047C102.134 48.2311 102.531 47.1352 102.531 45.7169C102.531 44.2986 102.134 43.208 101.339 42.4452C100.543 41.6824 99.6301 41.301 98.5986 41.301C97.5672 41.301 96.654 41.6878 95.8589 42.4614C95.0638 43.235 94.6663 44.3309 94.6663 45.7492C94.6663 47.1673 95.0638 48.2579 95.8589 49.0209C96.654 49.7837 97.5672 50.1651 98.5986 50.1651C99.6301 50.1651 100.543 49.7783 101.339 49.0047ZM91.443 52.357C89.8528 50.6379 89.0577 48.4352 89.0577 45.7492C89.0577 43.0631 89.8528 40.8551 91.443 39.1253C93.0331 37.3953 94.9725 36.5304 97.261 36.5304C99.5496 36.5304 101.306 37.3793 102.531 39.0768V36.7239H108.043V54.7099H102.531V52.0991C101.199 53.9901 99.4152 54.9355 97.1804 54.9355C94.9457 54.9355 93.0331 54.0761 91.443 52.357ZM118.39 36.7239V39.367C119.529 37.476 121.345 36.5304 123.837 36.5304C125.17 36.5304 126.357 36.8313 127.399 37.433C128.441 38.0347 129.252 38.8942 129.833 40.0117C130.499 38.9587 131.364 38.1153 132.427 37.4813C133.491 36.8474 134.678 36.5304 135.989 36.5304C138.181 36.5304 139.922 37.2074 141.211 38.5612C142.5 39.9149 143.145 41.7952 143.145 44.202V54.7099H137.665V44.9433C137.665 43.7829 137.359 42.8857 136.747 42.2518C136.134 41.618 135.291 41.301 134.216 41.301C133.142 41.301 132.299 41.618 131.686 42.2518C131.074 42.8857 130.767 43.7829 130.767 44.9433V54.7099H125.288V44.9433C125.288 43.7829 124.982 42.8857 124.369 42.2518C123.757 41.618 122.913 41.301 121.839 41.301C120.764 41.301 119.921 41.618 119.308 42.2518C118.696 42.8857 118.39 43.7829 118.39 44.9433V54.7099H112.878V36.7239H118.39Z" fill="#2B2A29"/>
<path d="M146.787 43.4606C146.787 41.2687 147.281 39.2972 148.27 37.5458C149.258 35.7945 150.607 34.4246 152.315 33.4361C154.024 32.4476 155.92 31.9533 158.004 31.9533C160.454 31.9533 162.592 32.5443 164.419 33.7262C166.245 34.9081 167.578 36.5843 168.416 38.7545H164.902C164.279 37.4009 163.382 36.3586 162.211 35.6279C161.04 34.8973 159.638 34.532 158.004 34.532C156.436 34.532 155.028 34.8973 153.782 35.6279C152.535 36.3586 151.558 37.3954 150.849 38.7385C150.139 40.0815 149.785 41.6555 149.785 43.4606C149.785 45.2442 150.139 46.8075 150.849 48.1505C151.558 49.4937 152.535 50.5305 153.782 51.2611C155.028 51.9917 156.436 52.357 158.004 52.357C159.638 52.357 161.04 51.9971 162.211 51.2771C163.382 50.5573 164.279 49.5205 164.902 48.1667H168.416C167.578 50.3156 166.245 51.9755 164.419 53.1466C162.592 54.3178 160.454 54.9034 158.004 54.9034C155.92 54.9034 154.024 54.4145 152.315 53.4368C150.607 52.459 149.258 51.0999 148.27 49.3592C147.281 47.6186 146.787 45.6525 146.787 43.4606ZM175.7 39.9149C176.216 38.9049 176.952 38.1207 177.908 37.5619C178.864 37.0032 180.03 36.7239 181.406 36.7239V39.7538H180.632C177.344 39.7538 175.7 41.5374 175.7 45.1046V54.71H172.767V37.0462H175.7V39.9149ZM200.907 45.2012C200.907 45.7599 200.874 46.3509 200.81 46.974H186.692C186.799 48.7146 187.395 50.0739 188.481 51.0515C189.566 52.0292 190.882 52.5181 192.429 52.5181C193.697 52.5181 194.755 52.2226 195.604 51.6317C196.453 51.0407 197.049 50.2511 197.393 49.2626H200.552C200.079 50.9602 199.134 52.3409 197.715 53.4045C196.297 54.4683 194.535 55 192.429 55C190.753 55 189.254 54.624 187.933 53.8719C186.611 53.1198 185.574 52.0507 184.822 50.6647C184.07 49.2788 183.694 47.6724 183.694 45.8459C183.694 44.0193 184.059 42.4185 184.79 41.0432C185.521 39.6679 186.547 38.6096 187.868 37.8681C189.19 37.1268 190.71 36.7562 192.429 36.7562C194.105 36.7562 195.588 37.1215 196.877 37.8521C198.167 38.5826 199.161 39.5872 199.859 40.8659C200.557 42.1444 200.907 43.5895 200.907 45.2012ZM197.877 44.5888C197.877 43.4714 197.63 42.5097 197.135 41.704C196.641 40.8981 195.97 40.2857 195.121 39.8666C194.272 39.4476 193.332 39.2381 192.3 39.2381C190.818 39.2381 189.555 39.7109 188.513 40.6564C187.471 41.6019 186.874 42.9127 186.724 44.5888H197.877ZM228.305 37.0462L222.793 54.71H219.763L215.508 40.6885L211.253 54.71H208.224L202.679 37.0462H205.677L209.738 51.8734L214.122 37.0462H217.12L221.407 51.9058L225.404 37.0462H228.305Z" fill="#5B5B5B"/>
<defs>
<linearGradient id="paint0_linear_196_744" x1="39.5" y1="2.5" x2="20.2263" y2="33.6019" gradientUnits="userSpaceOnUse">
<stop stop-color="#298CDD"/>
<stop offset="0.207843" stop-color="#6B69AF"/>
<stop offset="0.478431" stop-color="#4D509C"/>
<stop offset="1" stop-color="#964693"/>
</linearGradient>
</defs>
</svg>
