<svg width="131" height="116" viewBox="0 0 131 116" fill="none" xmlns="http://www.w3.org/2000/svg">
<path fill-rule="evenodd" clip-rule="evenodd" d="M0 65.428V65.4646H15.7367C15.7367 92.9277 38.0002 115.191 65.464 115.191C78.9894 115.191 91.251 109.789 100.216 101.027L89.8453 90.6567C83.5357 96.7642 74.9395 100.524 65.464 100.524C46.1001 100.524 30.4044 84.8279 30.4044 65.4646H45.561C45.561 54.4725 54.4719 45.5613 65.464 45.5613C76.4561 45.5613 85.3676 54.4725 85.3676 65.4646H100.524L100.521 65.239C100.399 45.9803 84.7515 30.4044 65.464 30.4044C46.2143 30.4044 30.5897 45.9198 30.4081 65.1263L30.4044 65.4646H15.8816L15.8863 65.103C16.0812 37.886 38.2013 15.882 65.464 15.882C92.78 15.882 114.934 37.972 115.044 65.2619L115.046 65.4646H130.928L130.926 65.2874C130.83 29.2141 101.56 0 65.464 0C29.4381 0 0.213862 29.1014 0.00497106 65.0775C0.00435028 65.1945 0.000931165 65.3113 0 65.428Z" fill="url(#paint0_linear_318_478)"/>
<defs>
<linearGradient id="paint0_linear_318_478" x1="82.7285" y1="5.23598" x2="42.3618" y2="70.3756" gradientUnits="userSpaceOnUse">
<stop stop-color="#298CDD"/>
<stop offset="0.207843" stop-color="#6B69AF"/>
<stop offset="0.478431" stop-color="#4D509C"/>
<stop offset="1" stop-color="#964693"/>
</linearGradient>
</defs>
</svg>
