<svg width="41" height="41" viewBox="0 0 41 41" fill="none" xmlns="http://www.w3.org/2000/svg">
<path d="M26.6499 18.4501C26.6499 18.6313 26.5779 18.8051 26.4497 18.9333C26.3216 19.0614 26.1478 19.1334 25.9665 19.1334H24.1215C23.9574 20.2709 23.3891 21.3112 22.5208 22.0641C21.6525 22.817 20.5421 23.2321 19.3929 23.2334H17.0832L20.3632 27.6068C20.4719 27.7518 20.5186 27.934 20.493 28.1134C20.4674 28.2928 20.3715 28.4547 20.2265 28.5634C20.0816 28.6722 19.8993 28.7189 19.7199 28.6932C19.5405 28.6676 19.3786 28.5718 19.2699 28.4268L15.2314 23.0353C15.1392 22.9381 15.0772 22.8163 15.0528 22.6846C15.0285 22.5529 15.0428 22.417 15.0942 22.2933C15.1455 22.1696 15.2317 22.0635 15.3421 21.9878C15.4526 21.9121 15.5827 21.87 15.7165 21.8668H19.3929C20.1802 21.8658 20.9431 21.5934 21.5531 21.0955C22.163 20.5976 22.5826 19.9046 22.7412 19.1334H15.7165C15.5353 19.1334 15.3615 19.0614 15.2333 18.9333C15.1052 18.8051 15.0332 18.6313 15.0332 18.4501C15.0332 18.2689 15.1052 18.095 15.2333 17.9669C15.3615 17.8387 15.5353 17.7668 15.7165 17.7668H22.7412C22.5826 16.9956 22.163 16.3026 21.5531 15.8047C20.9431 15.3068 20.1802 15.0344 19.3929 15.0334H15.7165C15.5353 15.0334 15.3615 14.9614 15.2333 14.8333C15.1052 14.7051 15.0332 14.5313 15.0332 14.3501C15.0332 14.1689 15.1052 13.995 15.2333 13.8669C15.3615 13.7387 15.5353 13.6667 15.7165 13.6667H25.9665C26.1478 13.6667 26.3216 13.7387 26.4497 13.8669C26.5779 13.995 26.6499 14.1689 26.6499 14.3501C26.6499 14.5313 26.5779 14.7051 26.4497 14.8333C26.3216 14.9614 26.1478 15.0334 25.9665 15.0334H22.7275C23.483 15.7643 23.9735 16.7261 24.1215 17.7668H25.9665C26.1478 17.7668 26.3216 17.8387 26.4497 17.9669C26.5779 18.095 26.6499 18.2689 26.6499 18.4501Z" fill="#C39BF5"/>
<path d="M20.5 0C16.4455 0 12.482 1.20231 9.11083 3.45488C5.73962 5.70745 3.11208 8.90911 1.56048 12.655C0.00888254 16.4009 -0.397087 20.5228 0.393911 24.4994C1.18491 28.476 3.13735 32.1288 6.00433 34.9957C8.87131 37.8627 12.5241 39.8151 16.5007 40.6061C20.4773 41.3971 24.5992 40.9912 28.3451 39.4396C32.0909 37.888 35.2926 35.2604 37.5452 31.8892C39.7978 28.518 41.0001 24.5545 41.0001 20.5C40.9939 15.065 38.8321 9.85428 34.989 6.01111C31.1458 2.16794 25.9351 0.00614928 20.5 0ZM20.5 39.6334C16.7158 39.6334 13.0166 38.5112 9.87011 36.4088C6.72365 34.3064 4.27128 31.3182 2.82312 27.822C1.37496 24.3259 0.996055 20.4788 1.73432 16.7673C2.47258 13.0558 4.29486 9.64655 6.97071 6.9707C9.64656 4.29485 13.0558 2.47258 16.7673 1.73431C20.4788 0.996046 24.3259 1.37495 27.8221 2.82311C31.3182 4.27127 34.3064 6.72364 36.4088 9.8701C38.5112 13.0166 39.6334 16.7158 39.6334 20.5C39.6276 25.5727 37.6099 30.436 34.023 34.023C30.436 37.6099 25.5727 39.6276 20.5 39.6334Z" fill="#C39BF5"/>
<path d="M32.2732 11.1732C32.4618 10.8499 32.5622 10.4828 32.5643 10.1086C32.5643 9.67991 32.4372 9.26086 32.1991 8.90443C31.9609 8.54799 31.6225 8.27018 31.2264 8.1061C30.8304 7.94202 30.3946 7.89906 29.9742 7.98264C29.5537 8.06622 29.1675 8.27259 28.8644 8.57566C28.5612 8.87872 28.3547 9.26488 28.271 9.68529C28.1873 10.1057 28.2301 10.5415 28.3941 10.9376C28.558 11.3337 28.8357 11.6722 29.1921 11.9105C29.5484 12.1487 29.9674 12.276 30.3961 12.2761C30.6935 12.2761 30.9877 12.2142 31.2598 12.0943C33.183 14.5565 34.2042 17.6033 34.1532 20.7271C34.1023 23.8509 32.9824 26.8628 30.98 29.261C28.9777 31.6591 26.214 33.2986 23.1494 33.9062C20.0849 34.5138 16.9047 34.0527 14.1389 32.5998C14.0593 32.5547 13.9714 32.526 13.8805 32.5155C13.7896 32.505 13.6974 32.5129 13.6096 32.5386C13.5218 32.5644 13.44 32.6076 13.3692 32.6655C13.2984 32.7235 13.2399 32.7951 13.1973 32.8761C13.1547 32.9571 13.1287 33.0458 13.1211 33.137C13.1134 33.2282 13.1241 33.32 13.1526 33.407C13.1811 33.494 13.2268 33.5744 13.2869 33.6434C13.347 33.7124 13.4204 33.7686 13.5027 33.8087C16.5528 35.417 20.0634 35.9272 23.4452 35.2537C26.8269 34.5801 29.8741 32.7637 32.0751 30.1094C34.2762 27.4551 35.4973 24.1245 35.5333 20.6765C35.5694 17.2284 34.4183 13.873 32.2732 11.1732ZM29.5959 10.1086C29.5959 9.95015 29.6429 9.79528 29.7309 9.66357C29.819 9.53185 29.9441 9.4292 30.0905 9.36861C30.2369 9.30801 30.3979 9.29219 30.5533 9.32315C30.7087 9.35411 30.8514 9.43045 30.9633 9.54252C31.0753 9.65459 31.1515 9.79736 31.1824 9.95275C31.2132 10.1082 31.1972 10.2692 31.1365 10.4155C31.0758 10.5619 30.973 10.6869 30.8412 10.7748C30.7094 10.8627 30.5545 10.9096 30.3961 10.9094C30.1838 10.9093 29.9803 10.8248 29.8303 10.6746C29.6802 10.5245 29.5959 10.3209 29.5959 10.1086Z" fill="#C39BF5"/>
<path d="M10.1085 28.724C9.94933 28.7249 9.79074 28.7435 9.63564 28.7793C7.8103 26.4061 6.82461 23.494 6.83329 20.5001C6.83745 16.8767 8.27866 13.403 10.8408 10.8409C13.4029 8.27875 16.8766 6.83754 20.5 6.83338C22.4986 6.82812 24.4735 7.26544 26.283 8.11395C26.4472 8.19079 26.6352 8.19926 26.8057 8.13749C26.9761 8.07572 27.115 7.94878 27.1919 7.78458C27.2687 7.62039 27.2772 7.43239 27.2154 7.26195C27.1536 7.09151 27.0267 6.95259 26.8625 6.87575C23.8277 5.45527 20.4052 5.08992 17.139 5.83779C13.8727 6.58566 10.9502 8.40382 8.83585 11.0033C6.72152 13.6027 5.53673 16.8344 5.4698 20.1845C5.40287 23.5346 6.45764 26.8109 8.46646 29.4927C8.12941 29.881 7.94294 30.3774 7.94097 30.8915C7.94084 31.3204 8.06791 31.7397 8.3061 32.0964C8.5443 32.453 8.88292 32.7311 9.27914 32.8953C9.67535 33.0594 10.1114 33.1024 10.532 33.0188C10.9527 32.9352 11.3391 32.7286 11.6424 32.4254C11.9456 32.1221 12.1521 31.7357 12.2358 31.315C12.3194 30.8944 12.2764 30.4584 12.1122 30.0622C11.948 29.6659 11.67 29.3273 11.3134 29.0891C10.9567 28.8509 10.5374 28.7239 10.1085 28.724ZM10.1085 31.6924C9.95014 31.6923 9.79537 31.6452 9.66376 31.5571C9.53215 31.469 9.4296 31.3439 9.36909 31.1975C9.30858 31.0512 9.29282 30.8902 9.3238 30.7349C9.35478 30.5796 9.43111 30.4369 9.54314 30.325C9.65517 30.2131 9.79787 30.1368 9.9532 30.106C10.1085 30.0751 10.2695 30.0911 10.4158 30.1517C10.5621 30.2123 10.6872 30.315 10.7751 30.4467C10.8631 30.5783 10.9101 30.7332 10.9101 30.8915C10.9101 30.9968 10.8893 31.101 10.849 31.1982C10.8087 31.2954 10.7497 31.3837 10.6753 31.4581C10.6008 31.5324 10.5124 31.5914 10.4152 31.6316C10.318 31.6718 10.2137 31.6925 10.1085 31.6924Z" fill="#C39BF5"/>
</svg>
