<svg width="44" height="41" viewBox="0 0 44 41" fill="none" xmlns="http://www.w3.org/2000/svg">
<path fill-rule="evenodd" clip-rule="evenodd" d="M10.9333 16.4H19.1333V0H24.6V16.4H32.8L21.8667 27.3333L10.9333 16.4ZM41 5.46667H30.0667V8.2H41V30.0667H2.73333V8.2H13.6667V5.46667H2.73333C1.23 5.46667 0 6.69667 0 8.2V32.8C0 34.3033 1.23 35.5333 2.73333 35.5333H17.3293C16.646 37.2007 14.9787 39.3327 10.9333 41H32.8C28.7547 39.3327 27.0873 37.2007 26.404 35.5333H41C42.5033 35.5333 43.7333 34.3033 43.7333 32.8V8.2C43.7333 6.69667 42.5033 5.46667 41 5.46667Z" fill="#969696"/>
</svg>
