<svg width="264" height="64" viewBox="0 0 264 64" fill="none" xmlns="http://www.w3.org/2000/svg">
<path fill-rule="evenodd" clip-rule="evenodd" d="M0 35.9898V36.01H8.65624C8.65624 51.1166 20.9027 63.363 36.0096 63.363C43.4495 63.363 50.1942 60.3912 55.1256 55.5719L49.421 49.8673C45.9503 53.2268 41.2218 55.2951 36.0096 55.2951C25.3582 55.2951 16.7245 46.6611 16.7245 36.01H25.0616C25.0616 29.9636 29.9632 25.0618 36.0096 25.0618C42.056 25.0618 46.958 29.9636 46.958 36.01H55.2949L55.2934 35.8858C55.2265 25.2923 46.6191 16.7245 36.0096 16.7245C25.421 16.7245 16.8264 25.259 16.7265 35.8239L16.7245 36.01H8.73597L8.73853 35.8111C8.84575 20.8399 21.0133 8.73616 36.0096 8.73616C51.0353 8.73616 63.2216 20.8872 63.2817 35.8985L63.2833 36.01H72.0194L72.0182 35.9125C71.9656 16.0697 55.8647 0 36.0096 0C16.193 0 0.117639 16.0077 0.00273442 35.797C0.00239295 35.8614 0.000512203 35.9256 0 35.9898Z" fill="url(#paint0_linear_327_543)"/>
<path fill-rule="evenodd" clip-rule="evenodd" d="M68.4872 1.87598L69.8437 6.29133L74.2594 7.64782L69.8437 9.00431L68.4872 13.42L67.1309 9.00431L62.7153 7.64782L67.1309 6.29133L68.4872 1.87598Z" fill="#964693"/>
<path d="M78.109 59.4823C75.522 56.9696 74.2285 53.7822 74.2285 49.9202C74.2285 46.0582 75.522 42.8709 78.109 40.358C80.6961 37.8453 83.8586 36.5889 87.5968 36.5889C90.4934 36.5889 93.068 37.3563 95.3209 38.8912C97.5737 40.4261 99.1457 42.5552 100.037 45.2784H92.4614C91.4713 43.3722 89.8869 42.4191 87.7083 42.4191C85.5298 42.4191 83.8154 43.0998 82.5651 44.4614C81.315 45.823 80.6899 47.6426 80.6899 49.9202C80.6899 52.1978 81.315 54.0173 82.5651 55.3789C83.8154 56.7405 85.5298 57.4214 87.7083 57.4214C89.8869 57.4214 91.4713 56.4682 92.4614 54.5619H100.037C99.1457 57.2851 97.5737 59.4142 95.3209 60.9491C93.068 62.484 90.4934 63.2515 87.5968 63.2515C83.8586 63.2515 80.6961 61.995 78.109 59.4823ZM116.747 56.4559C117.663 55.5647 118.121 54.3021 118.121 52.6681C118.121 51.0342 117.663 49.7778 116.747 48.899C115.831 48.0202 114.779 47.5808 113.591 47.5808C112.403 47.5808 111.35 48.0264 110.434 48.9176C109.518 49.8088 109.061 51.0714 109.061 52.7054C109.061 54.3391 109.518 55.5956 110.434 56.4745C111.35 57.3533 112.403 57.7927 113.591 57.7927C114.779 57.7927 115.831 57.3471 116.747 56.4559ZM105.347 60.3179C103.515 58.3374 102.599 55.7998 102.599 52.7054C102.599 49.6108 103.515 47.067 105.347 45.0742C107.179 43.0812 109.413 42.0848 112.05 42.0848C114.686 42.0848 116.71 43.0628 118.121 45.0184V42.3076H124.471V63.0286H118.121V60.0208C116.586 62.1994 114.532 63.2885 111.957 63.2885C109.382 63.2885 107.179 62.2984 105.347 60.3179ZM136.392 42.3076V45.3527C137.704 43.1741 139.796 42.0848 142.667 42.0848C144.202 42.0848 145.57 42.4314 146.771 43.1246C147.971 43.8178 148.906 44.808 149.574 46.0954C150.342 44.8823 151.338 43.9107 152.564 43.1803C153.789 42.45 155.157 42.0848 156.667 42.0848C159.192 42.0848 161.197 42.8647 162.683 44.4244C164.168 45.9839 164.911 48.1502 164.911 50.9229V63.0286H158.598V51.7769C158.598 50.4401 158.245 49.4064 157.54 48.6762C156.834 47.946 155.862 47.5808 154.624 47.5808C153.387 47.5808 152.415 47.946 151.709 48.6762C151.004 49.4064 150.651 50.4401 150.651 51.7769V63.0286H144.338V51.7769C144.338 50.4401 143.985 49.4064 143.28 48.6762C142.574 47.946 141.603 47.5808 140.365 47.5808C139.127 47.5808 138.155 47.946 137.45 48.6762C136.744 49.4064 136.392 50.4401 136.392 51.7769V63.0286H130.041V42.3076H136.392Z" fill="white"/>
<path d="M169.106 50.0685C169.106 47.5434 169.676 45.2721 170.815 43.2544C171.953 41.2368 173.507 39.6585 175.475 38.5197C177.443 37.3809 179.628 36.8115 182.029 36.8115C184.852 36.8115 187.315 37.4924 189.419 38.854C191.523 40.2156 193.058 42.1466 194.024 44.6469H189.976C189.258 43.0874 188.225 41.8866 186.875 41.0449C185.526 40.2032 183.911 39.7823 182.029 39.7823C180.222 39.7823 178.6 40.2032 177.165 41.0449C175.729 41.8866 174.602 43.0811 173.785 44.6284C172.968 46.1756 172.56 47.989 172.56 50.0685C172.56 52.1233 172.968 53.9244 173.785 55.4716C174.602 57.019 175.729 58.2134 177.165 59.0552C178.6 59.8969 180.222 60.3177 182.029 60.3177C183.911 60.3177 185.526 59.903 186.875 59.0736C188.225 58.2443 189.258 57.0499 189.976 55.4902H194.024C193.058 57.9659 191.523 59.8782 189.419 61.2274C187.315 62.5767 184.852 63.2513 182.029 63.2513C179.628 63.2513 177.443 62.688 175.475 61.5617C173.507 60.4352 171.953 58.8694 170.815 56.8641C169.676 54.8588 169.106 52.5937 169.106 50.0685ZM202.416 45.9837C203.01 44.8201 203.858 43.9166 204.96 43.273C206.061 42.6293 207.404 42.3075 208.989 42.3075V45.7981H208.098C204.31 45.7981 202.416 47.8529 202.416 51.9625V63.0285H199.037V42.6788H202.416V45.9837ZM231.455 52.0738C231.455 52.7175 231.418 53.3984 231.344 54.1161H215.079C215.203 56.1214 215.89 57.6874 217.14 58.8137C218.39 59.9401 219.906 60.5033 221.689 60.5033C223.149 60.5033 224.369 60.1629 225.347 59.4822C226.324 58.8013 227.011 57.8916 227.408 56.7528H231.047C230.502 58.7085 229.413 60.2991 227.779 61.5245C226.145 62.75 224.115 63.3626 221.689 63.3626C219.758 63.3626 218.031 62.9295 216.508 62.063C214.986 61.1965 213.792 59.9648 212.925 58.3681C212.059 56.7714 211.625 54.9208 211.625 52.8165C211.625 50.7122 212.046 48.8679 212.888 47.2835C213.73 45.6991 214.912 44.4799 216.434 43.6257C217.957 42.7717 219.708 42.3447 221.689 42.3447C223.62 42.3447 225.328 42.7655 226.813 43.6073C228.299 44.4488 229.444 45.6062 230.248 47.0793C231.053 48.5522 231.455 50.2171 231.455 52.0738ZM227.965 51.3683C227.965 50.081 227.68 48.9731 227.11 48.0448C226.541 47.1164 225.767 46.4109 224.789 45.928C223.812 45.4454 222.729 45.204 221.54 45.204C219.832 45.204 218.378 45.7486 217.177 46.8379C215.976 47.9272 215.289 49.4373 215.116 51.3683H227.965ZM263.019 42.6788L256.67 63.0285H253.179L248.277 46.875L243.375 63.0285H239.885L233.498 42.6788H236.951L241.63 59.7606L246.68 42.6788H250.134L255.073 59.7979L259.677 42.6788H263.019Z" fill="white"/>
<defs>
<linearGradient id="paint0_linear_327_543" x1="45.5063" y1="2.88015" x2="23.3018" y2="38.7113" gradientUnits="userSpaceOnUse">
<stop stop-color="#298CDD"/>
<stop offset="0.207843" stop-color="#6B69AF"/>
<stop offset="0.478431" stop-color="#4D509C"/>
<stop offset="1" stop-color="#964693"/>
</linearGradient>
</defs>
</svg>
